<?xml version="1.0" encoding="utf-8"?><svg viewBox="0 0 1000 1000" xmlns="http://www.w3.org/2000/svg" xmlns:xlink="http://www.w3.org/1999/xlink"><style>:root>svg{display:none}:root>svg:target{display:block}</style><svg viewBox="0 0 1000 1000" fill="#fff" id="logo" xmlns="http://www.w3.org/2000/svg"><path d="M675.47 101.32c.93 26.14 1.87 47.38 2.1 47.62 0 .23 35.24 22.64 78.19 49.72 42.72 27.31 80.3 51.12 83.33 53.22l5.6 3.5V54.18H673.83l1.64 47.14zm-417.81 176.7L10 440.48l49.25 1.17 49.02 1.17.47 229.92c.23 126.51.47 238.55.47 249.06l.23 19.37H373.2V686.98l6.77-4.9c12.37-8.64 36.41-18.67 59.99-24.74 19.61-5.14 28.24-6.07 56.95-6.3 43.88 0 82.86 8.4 123.25 26.61l14.47 6.54v261.66h268.42v-497.2h44.82c38.04 0 44.35-.47 41.54-3.27-3.03-2.57-461.93-315.81-478.27-326.08l-6.07-3.97-247.41 162.69zm229.91 88.93v53.69h-86.36V313.26h86.36v53.69zm130.72 0v53.69h-86.37V313.26h86.36v53.69zm-2.34 128.38v53.69h-86.36V441.64h86.36v53.69zm-128.38 2.34v53.69h-86.36V443.98h86.36v53.69z"/></svg><svg preserveAspectRatio="xMidYMid" viewBox="0 0 295 512" fill="orange" id="phone-icon" xmlns="http://www.w3.org/2000/svg"><path d="M257.5 512h-220C16.822 512 0 495.178 0 474.5v-437C0 16.822 16.822 0 37.5 0h220C278.178 0 295 16.822 295 37.5v437c0 20.678-16.822 37.5-37.5 37.5zM280 37.5c0-12.407-10.093-22.5-22.5-22.5h-220C25.093 15 15 25.093 15 37.5V60h265V37.5zm0 384.5H67.5a7.5 7.5 0 010-15H280V75H15v332h22.5a7.5 7.5 0 010 15H15v52.5c0 12.407 10.093 22.5 22.5 22.5h220c12.407 0 22.5-10.093 22.5-22.5V422zm-132.5 60c-12.407 0-22.5-10.093-22.5-22.5s10.093-22.5 22.5-22.5 22.5 10.093 22.5 22.5-10.093 22.5-22.5 22.5zm0-30c-4.136 0-7.5 3.364-7.5 7.5s3.364 7.5 7.5 7.5 7.5-3.364 7.5-7.5-3.364-7.5-7.5-7.5zm-30-422a7.5 7.5 0 110 15 7.5 7.5 0 010-15zm30 0h30a7.5 7.5 0 010 15h-30a7.5 7.5 0 010-15z" class="bcls-1"/></svg><svg viewBox="0 0 512 512" id="squirrel-corp_logo" xmlns="http://www.w3.org/2000/svg"><path d="M100.848 73.152v148.021c31.441-9.908 54.303-39.339 54.303-74.01S132.29 83.06 100.848 73.152z" fill="#fff"/><path d="M77.576 23.042H54.303v248.242h23.273c68.44 0 124.121-55.681 124.121-124.121S146.016 23.042 77.576 23.042z" fill="#bf3c1a"/><path d="M100.848 221.174V73.152c31.441 9.908 54.303 39.339 54.303 74.01s-22.861 64.104-54.303 74.012z" fill="#401409"/><path d="M356.848 147.164c0 34.672 22.86 64.102 54.303 74.01V73.152c-31.443 9.908-54.303 39.34-54.303 74.012z" fill="#fff"/><path d="M434.424 23.042c-68.44 0-124.121 55.681-124.121 124.121s55.681 124.121 124.121 124.121h23.273V23.042h-23.273z" fill="#802812"/><path d="M411.151 221.174c-31.443-9.908-54.303-39.339-54.303-74.01s22.86-64.102 54.303-74.01v148.02z" fill="#401409"/><path d="M458.82 170.436H53.18C18.676 202.784 0 242.43 0 284.536c0 151.481 241.169 201.456 251.435 203.509l4.565.912 4.563-.912C270.831 485.991 512 436.015 512 284.536c0-42.106-18.676-81.752-53.18-114.1z" fill="#ffd6a0"/><path d="M458.82 170.436H256v318.521l4.563-.912C270.831 485.991 512 436.015 512 284.536c0-42.106-18.676-81.752-53.18-114.1z" fill="#ffc170"/><g fill="#401409"><circle cx="124.121" cy="286.797" r="23.273"/><circle cx="387.879" cy="286.797" r="23.273"/><path d="M271.515 341.103h-31.03c-8.569 0-15.515 6.946-15.515 15.515 0 15.515 31.03 31.03 31.03 31.03s31.03-15.515 31.03-31.03c0-8.57-6.946-15.515-15.515-15.515z"/></g><path d="M433.909 150.274c-9.782-6.847-20.215-13.054-31.182-18.614C360.069 110.034 309.215 98.354 256 98.354c-53.214 0-104.071 11.68-146.727 33.308-10.966 5.559-21.4 11.767-31.182 18.614C27.733 185.526 0 233.207 0 284.536c0 .509.014 1.012.019 1.519.403-59.541 48.952-107.861 108.587-107.861 59.885 0 108.606 48.721 108.606 108.606h77.576c0-59.885 48.721-108.606 108.606-108.606 59.634 0 108.184 48.32 108.587 107.861.005-.506.019-1.008.019-1.519 0-51.329-27.733-99.01-78.091-134.262z" fill="#ff5023"/><path d="M433.909 150.274c-9.782-6.847-20.215-13.054-31.182-18.614C360.069 110.034 309.215 98.354 256 98.354V286.8h38.788c0-59.885 48.721-108.606 108.606-108.606 59.634 0 108.184 48.32 108.587 107.861.005-.506.019-1.008.019-1.519 0-51.329-27.733-99.01-78.091-134.262z" fill="#bf3c1a"/></svg></svg>