<?xml version="1.0" encoding="utf-8"?>

<!DOCTYPE svg PUBLIC "-//W3C//DTD SVG 1.1//EN" "http://www.w3.org/Graphics/SVG/1.1/DTD/svg11.dtd">
<svg version="1.1" xmlns="http://www.w3.org/2000/svg" xmlns:xlink="http://www.w3.org/1999/xlink" x="0px" y="0px" viewBox="0 0 1000 1000" enable-background="new 0 0 1000 1000" xml:space="preserve" fill="white">
    <g>
        <g transform="translate(0.000000,511.000000) scale(0.100000,-0.100000)">
            <path d="M6754.7,4096.8c9.3-261.4,18.7-473.8,21-476.2c0-2.3,352.4-226.4,781.9-497.2c427.2-273.1,803-511.2,833.3-532.2l56-35v1006v1006h-854.3h-854.3L6754.7,4096.8z"/>
            <path d="M2576.6,2329.8L100,705.2l492.5-11.7l490.2-11.7l4.7-2299.2c2.3-1265.1,4.7-2385.5,4.7-2490.6l2.3-193.7h1318.8H3732v1269.8v1272.1l67.7,49c123.7,86.4,364.1,186.7,599.9,247.4c196.1,51.4,282.4,60.7,569.5,63c438.8,0,828.6-84,1232.5-266.1l144.7-65.4v-1307.1v-1309.5h1342.1h1342.1v2485.9V623.5h448.2c380.4,0,443.5,4.7,415.4,32.7c-30.3,25.7-4619.3,3158.1-4782.7,3260.8l-60.7,39.7L2576.6,2329.8z M4875.7,1440.5V903.6h-431.8h-431.8v536.9v536.9h431.8h431.8V1440.5z M6182.9,1440.5V903.6H5751h-431.8v536.9v536.9H5751h431.8V1440.5z M6159.5,156.7v-536.9h-431.8h-431.8v536.9v536.9h431.8h431.8V156.7z M4875.7,133.3v-536.9h-431.8h-431.8v536.9v536.9h431.8h431.8V133.3z"/>
        </g>
    </g>
</svg>